<svg width="64" height="64" xmlns="http://www.w3.org/2000/svg">

 <g>
  <title>background</title>
  <rect fill="none" id="canvas_background" height="402" width="582" y="-1" x="-1"/>
 </g>
 <g>
  <title>Layer 1</title>
  <path stroke="null" fill="#777777" id="svg_1" d="m32.193997,-25.893864c-30.506559,0 -55.325871,25.940215 -55.325871,57.824529c0,31.886643 24.819311,57.829187 55.325871,57.829187c30.506559,0 55.325871,-25.942544 55.325871,-57.829187c0.002229,-31.884314 -24.817083,-57.824529 -55.325871,-57.824529zm30.568959,53.597045l0,0.002329l-16.016556,12.1118l6.168614,19.704967c0.098056,0.307453 0.149313,0.63587 0.149313,0.971273c0,1.721273 -1.33267,3.118789 -2.979565,3.118789c-0.655192,0 -1.2569,-0.218944 -1.74718,-0.589286l-16.141355,-12.202639l-16.141355,12.202639c-0.49028,0.370342 -1.091987,0.589286 -1.744951,0.589286c-1.649124,0 -2.984022,-1.395186 -2.984022,-3.118789c0,-0.337733 0.053485,-0.66382 0.151541,-0.971273l6.170842,-19.704967l-16.016556,-12.1118l0,-0.002329c-0.748791,-0.563665 -1.234614,-1.483696 -1.234614,-2.522515c0,-1.721273 1.33267,-3.11413 2.981794,-3.11413l19.827369,0l6.139643,-19.614129c0.374396,-1.274068 1.508725,-2.201087 2.852538,-2.201087c1.341584,0 2.478143,0.927019 2.85031,2.201087l6.139643,19.614129l19.827369,0c1.646895,0 2.981794,1.392857 2.981794,3.11413c-0.002229,1.03882 -0.488051,1.958851 -1.234614,2.522515z"/>
 </g>
</svg>