<svg width="64" height="64" xmlns="http://www.w3.org/2000/svg">

 <g>
  <title>background</title>
  <rect fill="none" id="canvas_background" height="402" width="582" y="-1" x="-1"/>
 </g>
 <g>
  <title>Layer 1</title>
  <path fill="#777777" stroke="null" id="svg_1" d="m31.194004,-16.893901c-24.992605,0 -45.325912,21.902976 -45.325912,48.824932c0,26.923924 20.333307,48.828866 45.325912,48.828866c24.992605,0 45.325912,-21.904942 45.325912,-48.828866c0.001826,-26.921957 -20.331481,-48.824932 -45.325912,-48.824932zm25.043726,45.255398l0,0.001967l-13.12162,10.226764l5.053658,16.638159c0.080333,0.259602 0.122325,0.536905 0.122325,0.820108c0,1.453381 -1.091795,2.633392 -2.441019,2.633392c-0.536769,0 -1.029719,-0.184868 -1.431383,-0.497571l-13.223861,-10.303465l-13.223861,10.303465c-0.401664,0.312703 -0.894614,0.497571 -1.429557,0.497571c-1.35105,0 -2.444671,-1.178045 -2.444671,-2.633392c0,-0.285169 0.043818,-0.560505 0.124151,-0.820108l5.055484,-16.638159l-13.12162,-10.226764l0,-0.001967c-0.61345,-0.475938 -1.011462,-1.252779 -1.011462,-2.12992c0,-1.453381 1.091795,-2.629458 2.442845,-2.629458l16.243641,0l5.029924,-16.561458c0.306725,-1.075777 1.236028,-1.858518 2.336952,-1.858518c1.099098,0 2.030227,0.782741 2.335126,1.858518l5.029924,16.561458l16.243641,0c1.349225,0 2.442845,1.176078 2.442845,2.629458c-0.001826,0.877142 -0.399838,1.653982 -1.011462,2.12992z"/>
 </g>
</svg>